<?xml version="1.0" standalone="no"?>
<!DOCTYPE svg PUBLIC "-//W3C//DTD SVG 20010904//EN"
 "http://www.w3.org/TR/2001/REC-SVG-20010904/DTD/svg10.dtd">
<svg version="1.0" xmlns="http://www.w3.org/2000/svg"
 width="512.000000pt" height="512.000000pt" viewBox="0 0 512.000000 512.000000"
 preserveAspectRatio="xMidYMid meet">
<metadata>
Created by potrace 1.16, written by Peter Selinger 2001-2019
</metadata>
<g transform="translate(0.000000,512.000000) scale(0.100000,-0.100000)"
fill="currentColor" stroke="none">
<path d="M2827 4633 c-4 -3 -7 -21 -7 -38 0 -38 -71 -398 -99 -505 -14 -52
-28 -81 -45 -95 -22 -18 -23 -22 -10 -39 20 -28 19 -136 -1 -136 -11 0 -15
-12 -15 -47 0 -27 -6 -86 -14 -133 -7 -47 -11 -99 -9 -116 4 -27 -1 -38 -38
-73 -24 -22 -47 -41 -51 -41 -12 0 -9 179 3 202 9 17 8 24 -4 33 -30 22 -49
139 -25 163 9 9 9 12 1 12 -7 0 -14 12 -16 28 -2 17 -5 8 -6 -23 l-3 -50 -10
35 c-6 19 -8 63 -5 97 2 34 1 65 -3 70 -14 14 -74 325 -93 478 -3 19 -5 13 -6
-18 -1 -44 -39 -254 -62 -340 -5 -21 -15 -37 -22 -36 -42 5 -67 -2 -67 -20 0
-14 6 -17 28 -13 15 2 33 9 40 15 9 7 12 2 12 -19 0 -37 -8 -47 -46 -67 -31
-16 -31 -17 -23 -68 9 -54 1 -87 -12 -53 -7 18 -8 18 -8 -1 -1 -11 6 -33 14
-49 16 -30 19 -176 6 -271 l-7 -50 -19 75 -20 75 -11 -95 c-6 -52 -12 -88 -14
-80 -1 8 -2 19 -1 23 1 4 -5 20 -13 35 -24 47 -78 313 -74 370 2 28 0 52 -4
52 -7 0 -13 -45 -10 -80 1 -8 -13 -91 -30 -185 -21 -121 -36 -176 -49 -191
-10 -11 -19 -25 -19 -31 0 -7 -8 -14 -17 -16 -15 -4 -15 -6 5 -12 18 -6 22
-15 22 -46 0 -21 4 -40 9 -43 5 -4 9 -66 9 -139 l0 -132 -12 75 c-6 41 -15 82
-21 90 -5 8 -12 30 -16 50 -6 29 -7 26 -6 -20 1 -30 -2 -81 -7 -112 -8 -58 -8
-58 18 -58 35 0 36 -35 2 -44 -13 -3 -31 -9 -40 -12 -14 -5 -16 7 -17 97 -1
83 -3 96 -10 64 -4 -22 -8 -70 -8 -107 -1 -54 -4 -68 -16 -68 -8 0 -15 -9 -15
-20 0 -12 -7 -20 -16 -20 -14 0 -16 9 -12 50 7 68 -8 64 -17 -5 -3 -30 -11
-55 -17 -55 -18 0 1 109 24 132 31 31 50 87 43 125 -4 22 -2 33 6 33 17 0 -19
38 -42 45 -17 6 -19 17 -19 87 0 62 4 86 16 100 16 16 15 22 -9 76 -29 65 -85
312 -93 412 -6 72 -14 93 -14 36 0 -20 -6 -65 -14 -99 -52 -223 -79 -324 -97
-359 l-20 -40 20 -22 c17 -19 21 -35 21 -98 0 -75 0 -76 -30 -87 -16 -5 -30
-17 -30 -25 0 -8 -8 -20 -18 -25 -27 -15 -15 -97 22 -145 l27 -36 -3 -219 c-3
-199 -5 -221 -22 -240 -11 -12 -16 -21 -12 -21 3 0 -2 -12 -11 -27 -10 -15
-17 -28 -15 -30 1 -2 2 -11 2 -20 -1 -26 -25 33 -34 82 l-8 40 -14 -34 c-8
-18 -14 -42 -14 -53 0 -29 -51 -92 -61 -76 -14 21 -10 98 5 113 14 14 31 139
21 155 -3 5 -20 13 -37 18 -24 6 -34 17 -45 47 -28 78 -73 261 -74 300 -1 23
-4 31 -6 17 -3 -14 -17 -28 -37 -36 -18 -8 -36 -23 -39 -35 -6 -24 -1 -25 33
-6 14 8 28 14 32 15 13 0 -2 -274 -15 -282 -6 -4 -13 -6 -14 -4 -2 2 4 51 13
110 23 156 13 161 -20 9 -24 -113 -32 -133 -50 -139 -40 -12 -43 -20 -35 -89
6 -43 15 -72 29 -87 19 -21 20 -34 20 -285 0 -236 -5 -295 -23 -250 -3 6 -6 1
-6 -12 -1 -23 -2 -23 -14 -7 -12 17 -15 15 -41 -18 -15 -20 -23 -36 -19 -36 4
0 1 -5 -7 -10 -13 -8 -12 -10 3 -10 14 0 16 -4 8 -19 -6 -10 -7 -21 -4 -25 3
-3 0 -6 -8 -7 -8 -1 -3 -4 11 -8 l25 -7 -24 -13 c-15 -9 -21 -9 -16 -2 5 8 -2
10 -22 5 -37 -9 -42 -14 -12 -14 21 -1 19 -3 -16 -25 l-40 -25 40 0 40 -1 -28
-24 c-28 -25 -28 -25 -5 -25 l23 -1 -25 -19 c-69 -52 -69 -51 -28 -48 21 2 38
3 38 3 0 -1 -36 -39 -80 -84 -79 -81 -95 -113 -64 -125 9 -3 66 -6 127 -6 111
-1 112 -1 89 -20 l-22 -18 27 -6 c16 -3 93 -8 173 -12 l145 -7 -79 -14 c-43
-7 -101 -19 -130 -27 l-51 -13 65 -6 c36 -4 137 -9 224 -12 276 -10 517 -49
666 -106 153 -58 348 -208 428 -329 l39 -58 21 43 c11 23 46 70 77 103 183
198 470 324 990 432 198 42 287 71 352 116 l53 36 40 -36 40 -36 -37 -15 c-49
-21 -150 -66 -192 -86 l-33 -16 96 -59 c58 -35 91 -61 83 -65 -6 -3 -48 -9
-92 -13 -303 -25 -569 -68 -722 -117 -168 -53 -429 -189 -474 -247 -13 -15
-11 -15 14 1 124 79 294 165 407 205 176 62 291 83 690 127 129 15 236 28 238
30 5 5 -32 37 -93 81 -30 21 -55 43 -55 47 0 9 67 40 168 77 l73 26 -56 63
c-69 77 -91 111 -79 119 14 10 11 46 -5 56 -9 5 -10 11 -3 15 10 6 6 35 -20
136 -11 40 -11 40 -22 15 -6 -14 -15 -32 -21 -40 -5 -8 -10 -22 -11 -30 -3
-46 -5 -49 -19 -44 -11 5 -13 10 -5 19 8 10 8 15 0 20 -6 4 -9 14 -5 22 3 9
-3 25 -12 35 -16 18 -18 49 -21 303 l-3 283 24 35 c13 20 27 55 31 78 6 38 4
45 -23 73 -16 17 -39 53 -50 79 -34 78 -74 300 -85 471 -5 66 -16 105 -16 55
0 -18 -10 -30 -35 -43 -41 -22 -47 -40 -9 -26 55 21 55 15 14 -212 -36 -202
-60 -279 -99 -329 -29 -36 -31 -41 -21 -81 5 -24 10 -46 10 -50 0 -13 -55 -9
-68 4 -15 15 -17 284 -2 293 6 3 10 44 10 90 0 64 -3 84 -15 89 -11 4 -15 23
-15 80 0 41 4 86 10 101 7 19 6 32 -5 49 -21 31 -64 204 -67 268 l-3 51 75 19
c159 40 181 48 226 90 68 62 79 137 33 214 -10 17 -34 39 -52 49 -71 38 -169
-5 -166 -73 1 -21 2 -22 6 -7 14 55 80 85 137 61 50 -21 76 -60 76 -116 0 -93
-58 -141 -229 -191 -114 -34 -108 -33 -114 -11 -3 10 -5 6 -6 -10 0 -16 -5
-28 -9 -28 -5 0 -17 -7 -28 -15 -18 -14 -17 -14 9 -5 21 7 27 7 27 -5 0 -31
-41 -226 -54 -257 l-14 -33 -23 50 c-12 28 -22 68 -23 90 0 22 -5 43 -9 46
-12 9 -57 266 -58 333 0 44 -3 55 -9 40 -5 -13 -21 -24 -40 -28 -20 -3 -30
-11 -27 -18 2 -7 11 -11 18 -9 8 2 22 6 32 8 13 4 17 -1 17 -20 0 -34 -49
-278 -58 -291 -10 -14 -3 -246 8 -246 4 0 6 37 4 83 -4 117 0 129 45 125 33
-3 36 -6 39 -38 5 -45 -15 -158 -33 -190 -8 -14 -14 -19 -15 -11 0 9 -12 4
-36 -14 -20 -16 -39 -24 -44 -19 -5 5 -10 51 -12 103 l-3 93 -35 12 -35 11 -3
78 c-2 52 1 84 10 94 10 12 9 17 -5 24 -20 12 -48 103 -82 279 -29 145 -40
178 -31 90 12 -121 15 -225 6 -205 -6 14 -9 -3 -8 -57 0 -75 -5 -98 -22 -98
-5 0 -5 13 0 30 5 16 11 94 14 172 5 151 -3 127 -23 -64 -14 -145 -30 -158
-31 -26 0 59 4 109 9 113 5 3 8 58 7 123 -1 88 -6 125 -19 149 -30 57 -119
489 -119 581 0 44 0 46 -11 35z m-10 -325 c-2 -18 -4 -6 -4 27 0 33 2 48 4 33
2 -15 2 -42 0 -60z m-450 -20 c-3 -8 -6 -5 -6 6 -1 11 2 17 5 13 3 -3 4 -12 1
-19z m408 -124 c-9 -65 -22 -122 -28 -126 -6 -4 -12 -6 -13 -5 -3 4 51 256 54
252 2 -1 -4 -56 -13 -121z m-417 -38 c-1 -76 -6 -119 -15 -132 -7 -9 -16 -15
-19 -11 -6 5 26 257 33 257 2 0 2 -51 1 -114z m465 24 c7 0 6 -4 -3 -10 -10
-6 -11 -10 -2 -10 6 0 12 -10 11 -22 0 -22 -1 -22 -8 -3 l-8 20 -5 -20 c-3
-11 -5 14 -5 55 0 41 2 56 4 33 2 -24 9 -43 16 -43z m35 -102 c13 -21 23 -61
27 -111 7 -69 6 -77 -9 -71 -11 4 -16 0 -16 -13 0 -14 12 -25 40 -36 29 -11
40 -21 40 -37 0 -19 -1 -20 -16 -6 -22 23 -32 20 -37 -11 -4 -26 -4 -26 -6 5
-1 39 -31 46 -31 7 0 -14 5 -25 10 -25 6 0 10 -52 9 -137 -1 -121 -3 -130 -10
-78 -5 33 -10 64 -12 70 -4 12 -34 -98 -53 -195 l-14 -75 6 65 c3 36 12 90 20
121 14 57 10 149 -7 149 -5 0 -9 -28 -9 -62 0 -35 -5 -81 -10 -103 -5 -22 -14
-105 -20 -185 -6 -80 -13 -147 -16 -149 -12 -12 -17 19 -18 125 -1 104 1 118
17 122 18 5 24 22 6 22 -6 0 -10 24 -9 63 1 34 -5 87 -13 117 -9 30 -17 84
-19 119 l-3 64 35 12 c33 11 35 14 36 58 1 40 -2 47 -17 47 -12 0 -19 7 -19
20 0 11 -5 20 -11 20 -6 0 -9 -7 -5 -15 3 -8 1 -15 -4 -15 -6 0 -10 -9 -10
-21 0 -12 -4 -17 -11 -13 -6 3 -9 19 -5 35 3 16 1 29 -4 29 -22 0 -8 19 21 29
45 15 47 15 55 -21 l7 -33 9 30 c8 27 50 115 54 115 2 0 11 -15 22 -32z m92
-68 c8 -5 12 -11 9 -14 -7 -8 -49 5 -49 15 0 12 21 11 40 -1z m-536 -26 c9 -3
16 -13 16 -21 0 -9 -6 -13 -15 -9 -12 4 -15 -4 -15 -39 l0 -45 -40 0 c-42 0
-41 -1 -54 70 -2 14 -4 4 -3 -22 1 -27 0 -48 -3 -48 -3 0 -15 -3 -27 -6 -22
-6 -23 -4 -23 50 0 60 -5 55 65 69 32 7 82 7 99 1z m503 -26 c-3 -7 -5 -2 -5
12 0 14 2 19 5 13 2 -7 2 -19 0 -25z m-1230 -70 c-3 -7 -5 -2 -5 12 0 14 2 19
5 13 2 -7 2 -19 0 -25z m1063 -7 c0 -12 -9 -20 -25 -23 -19 -4 -25 -1 -25 12
0 22 9 30 32 30 11 0 18 -7 18 -19z m-1076 -148 c-2 -71 -4 -137 -4 -148 0
-16 -10 -23 -38 -31 l-38 -10 19 38 c11 21 29 92 41 158 11 66 22 120 23 120
1 0 0 -57 -3 -127z m646 105 c17 -11 22 -10 30 2 9 13 11 13 20 0 9 -13 11
-13 20 0 8 12 10 11 10 -7 0 -12 4 -25 10 -28 6 -3 0 -21 -14 -43 -13 -20 -28
-57 -32 -82 l-9 -45 -5 55 c-5 50 -6 44 -15 -60 l-10 -115 -27 -3 c-16 -2 -28
-7 -28 -12 0 -4 8 -6 19 -3 11 3 21 -2 24 -11 4 -9 16 -16 28 -16 37 0 18 -7
-38 -14 l-53 -7 0 186 c0 158 2 185 15 185 8 0 15 7 15 15 0 18 14 19 40 3z
m361 -124 c-1 -64 -4 -121 -7 -126 -12 -20 -24 18 -22 72 l1 55 8 -55 c5 -45
7 -34 7 55 0 128 0 130 9 122 3 -4 5 -59 4 -123z m225 -201 c1 -210 -1 -242
-11 -208 -17 56 -10 455 8 455 2 0 3 -111 3 -247z m-849 215 c-3 -8 -6 -5 -6
6 -1 11 2 17 5 13 3 -3 4 -12 1 -19z m-370 -25 c-3 -10 -5 -4 -5 12 0 17 2 24
5 18 2 -7 2 -21 0 -30z m753 3 c0 -15 -7 -26 -20 -29 -24 -6 -25 -3 -4 28 20
31 24 31 24 1z m-393 -53 c-3 -10 -5 -4 -5 12 0 17 2 24 5 18 2 -7 2 -21 0
-30z m375 -93 c-3 -91 -5 -100 -23 -100 -15 0 -19 7 -19 35 0 19 5 35 10 35 6
0 10 5 10 11 0 5 -4 7 -10 4 -11 -7 -14 97 -3 108 3 4 13 7 22 7 14 0 16 -14
13 -100z m49 58 c13 -17 18 -28 11 -24 -9 5 -12 -11 -12 -63 0 -65 -2 -71 -21
-71 -20 0 -21 3 -13 73 4 39 8 82 8 95 1 12 2 22 3 22 1 0 12 -14 24 -32z
m576 -15 c-3 -10 -5 -2 -5 17 0 19 2 27 5 18 2 -10 2 -26 0 -35z m-1012 -39
c-5 -51 -4 -65 5 -59 8 5 11 3 8 -6 -3 -8 -15 -15 -27 -17 -19 -3 -21 -1 -13
15 6 10 13 44 17 76 4 31 10 57 12 57 3 0 2 -30 -2 -66z m22 -1 c-2 -16 -4 -5
-4 22 0 28 2 40 4 28 2 -13 2 -35 0 -50z m1250 -30 c-3 -10 -5 -2 -5 17 0 19
2 27 5 18 2 -10 2 -26 0 -35z m-600 -59 c-2 -3 -14 -6 -26 -9 -19 -3 -21 1
-21 45 0 43 3 49 23 52 20 3 22 -2 25 -41 2 -24 1 -45 -1 -47z m-1044 59 c-7
-2 -19 -2 -25 0 -7 3 -2 5 12 5 14 0 19 -2 13 -5z m65 -22 c11 -7 11 -11 -2
-24 -9 -9 -16 -32 -16 -53 0 -49 -17 -33 -22 21 -3 22 -5 2 -5 -44 -1 -46 -5
-87 -10 -91 -4 -4 -20 -10 -35 -14 l-28 -6 0 104 c0 91 2 105 18 109 30 8 86
7 100 -2z m1242 -10 c0 -11 3 -26 6 -35 4 -11 1 -16 -10 -16 -9 0 -16 8 -16
19 0 11 -3 26 -6 35 -4 11 -1 16 10 16 9 0 16 -8 16 -19z m122 -21 c-4 -38 -6
-40 -37 -40 -38 0 -40 2 -50 48 l-7 32 49 0 49 0 -4 -40z m208 -9 c0 -23 -5
-41 -13 -44 -10 -4 -11 4 -3 39 6 24 12 44 13 44 2 0 3 -18 3 -39z m-1215 -21
c4 -6 -6 -10 -22 -10 -19 0 -24 -3 -14 -9 22 -14 4 -48 -29 -53 -27 -4 -30 -2
-30 23 0 15 -3 34 -6 43 -5 13 2 16 44 16 28 0 54 -4 57 -10z m627 -182 c2
-101 3 -185 2 -186 -1 -2 -10 8 -20 23 -14 22 -18 56 -22 186 -5 154 -4 159
16 159 19 0 20 -7 24 -182z m-334 147 c-4 -17 -1 -25 8 -25 8 0 14 9 14 19 0
29 15 33 59 20 38 -11 39 -13 34 -48 -3 -20 -14 -49 -25 -66 -16 -25 -19 -26
-15 -8 6 27 -11 42 -24 22 -5 -8 -9 -25 -9 -38 0 -17 4 -22 16 -17 13 5 15 2
10 -16 -3 -13 -6 -193 -6 -400 l0 -378 -80 0 -80 0 0 391 c0 378 -7 478 -31
463 -5 -3 -9 2 -9 10 0 9 -6 16 -13 16 -9 0 -12 -10 -9 -30 3 -23 0 -30 -12
-30 -9 0 -16 8 -17 18 0 12 -3 10 -10 -8 -8 -20 -12 -22 -19 -10 -7 11 -10 8
-10 -13 0 -20 4 -26 13 -20 17 11 37 13 37 3 0 -9 -25 -20 -46 -20 -19 0 -19
76 0 83 10 4 13 17 9 46 -6 40 -5 41 25 41 17 0 37 3 46 6 9 3 16 1 16 -5 0
-6 -13 -14 -30 -17 -21 -5 -30 -12 -30 -26 0 -17 3 -18 15 -8 8 7 25 10 40 6
22 -6 25 -3 25 23 0 34 9 39 69 40 41 1 43 0 39 -24z m477 -40 c5 -30 4 -36
-4 -25 -10 13 -11 13 -11 0 0 -13 -1 -13 -11 0 -9 12 -10 11 -6 -8 3 -12 1
-20 -4 -16 -13 7 -11 48 3 79 14 32 24 22 33 -30z m119 39 c8 -20 8 -82 -1
-112 -10 -40 -23 -4 -23 66 0 59 11 80 24 46z m78 -49 c-3 -35 0 -55 7 -55 7
0 11 22 11 55 0 30 4 55 9 55 5 0 7 -8 5 -17 -3 -10 -8 -89 -12 -175 -8 -155
-14 -187 -32 -158 -15 24 -13 350 3 350 8 0 11 -16 9 -55z m-905 23 c-3 -8 -6
-5 -6 6 -1 11 2 17 5 13 3 -3 4 -12 1 -19z m377 -20 c5 -22 3 -28 -10 -28 -11
0 -14 5 -10 16 3 9 6 23 6 31 0 22 6 14 14 -19z m128 -3 c4 -32 2 -35 -23 -35
-23 0 -27 5 -31 35 -4 32 -2 35 23 35 23 0 27 -5 31 -35z m-544 -17 c12 -15
15 -714 3 -798 -5 -30 -9 -48 -10 -39 0 9 -8 22 -16 29 -13 11 -20 9 -40 -10
-15 -14 -30 -20 -41 -16 -16 6 -17 34 -10 404 5 218 8 407 8 420 0 20 5 22 48
22 26 0 52 -6 58 -12z m1377 -97 c-6 -31 -9 -33 -15 -16 -8 18 -9 18 -9 -4 -1
-13 -4 -22 -7 -18 -3 3 -3 21 1 39 7 29 9 30 16 13 5 -14 8 -4 10 35 2 41 3
46 6 21 3 -19 1 -51 -2 -70z m-595 -41 c0 -14 7 -34 15 -44 10 -13 14 -40 13
-75 l-1 -56 -6 60 -6 60 -47 3 c-47 3 -48 4 -48 36 0 19 6 49 14 67 7 19 16
43 21 54 6 17 10 12 25 -30 10 -27 19 -61 20 -75z m-240 90 c0 -5 -9 -10 -21
-10 -11 0 -17 5 -14 10 3 6 13 10 21 10 8 0 14 -4 14 -10z m-1060 -11 c0 -7
10 -9 25 -5 18 5 25 2 25 -9 0 -22 17 -18 23 5 3 11 12 20 21 20 19 0 21 -16
4 -26 -7 -5 -4 -10 11 -16 33 -12 25 -52 -11 -56 -22 -3 -28 -9 -28 -28 0 -15
6 -24 15 -24 8 0 15 5 15 10 0 6 4 10 10 10 11 0 2 -29 -16 -51 -32 -37 -44
-112 -44 -287 0 -169 -12 -256 -35 -249 -6 2 -11 102 -13 269 -2 221 -5 268
-17 278 -8 7 -15 18 -15 25 0 7 -6 18 -14 24 -8 6 -16 25 -18 42 -4 24 -1 30
19 35 14 4 23 14 23 25 0 10 5 19 10 19 6 0 10 -5 10 -11z m680 -421 c0 -338
-2 -388 -15 -388 -13 0 -15 48 -15 373 0 299 -3 377 -14 399 -18 34 -10 42 20
20 l23 -17 1 -387z m731 365 c2 1 -5 -7 -16 -19 -24 -24 -35 -21 -35 10 0 31
10 39 30 21 9 -8 19 -14 21 -12z m-211 -14 c0 -10 -7 -19 -15 -19 -9 0 -15 9
-15 25 0 18 4 23 15 19 8 -4 15 -15 15 -25z m150 0 c0 -5 -4 -9 -10 -9 -5 0
-10 7 -10 16 0 8 5 12 10 9 6 -3 10 -10 10 -16z m-730 2 c0 -10 -50 -25 -57
-17 -3 2 -2 9 2 15 8 13 55 15 55 2z m1328 -37 c19 -6 22 -13 22 -55 0 -32 -4
-49 -12 -50 -10 0 -10 -2 0 -6 6 -2 12 -19 11 -36 l-1 -32 -10 30 c-6 17 -15
33 -20 36 -5 3 -3 9 6 12 18 7 23 87 6 87 -5 0 -10 -18 -10 -39 0 -22 -5 -41
-12 -44 -10 -3 -12 8 -11 42 1 25 0 38 -3 29 -7 -24 -20 -23 -27 1 -8 31 10
38 61 25z m-1318 -81 c0 -55 -3 -74 -11 -66 -6 6 -19 8 -29 6 -15 -4 -20 -17
-23 -57 -2 -28 -2 1 1 64 5 115 9 130 45 130 15 0 17 -10 17 -77z m538 -26 c3
-94 2 -97 -19 -97 -20 0 -21 3 -15 53 3 28 6 74 6 100 0 35 4 47 13 45 8 -3
13 -35 15 -101z m232 -84 c13 3 20 0 20 -9 0 -9 -12 -14 -35 -14 l-35 0 0 99
c0 71 4 101 13 104 9 3 13 -21 15 -91 3 -88 4 -94 22 -89z m-353 117 c-2 -48
-3 -50 -32 -49 -16 1 -23 3 -14 6 10 2 22 23 29 49 7 24 14 44 16 44 2 0 3
-22 1 -50z m178 40 c3 -5 25 -10 48 -11 32 0 37 -2 22 -8 -11 -5 -23 -7 -27
-4 -5 2 -9 -11 -9 -29 -2 -30 -2 -31 -6 -5 -2 15 -11 27 -19 27 -8 0 -15 6
-15 13 -1 6 -7 -13 -14 -43 l-13 -55 -1 47 c-1 66 15 99 34 68z m532 -16 c-3
-3 -12 -4 -19 -1 -8 3 -5 6 6 6 11 1 17 -2 13 -5z m66 -1 c-7 -2 -19 -2 -25 0
-7 3 -2 5 12 5 14 0 19 -2 13 -5z m-523 -48 c0 -19 -4 -35 -10 -35 -11 0 -14
53 -3 63 11 12 13 8 13 -28z m-423 -22 c-3 -10 -5 -2 -5 17 0 19 2 27 5 18 2
-10 2 -26 0 -35z m355 17 c3 -16 1 -30 -4 -30 -4 0 -8 14 -8 30 0 17 2 30 4
30 2 0 6 -13 8 -30z m293 11 c-3 -11 -1 -22 5 -26 11 -7 4 -25 -11 -25 -10 0
-13 53 -2 63 11 12 15 8 8 -12z m233 2 c-2 -10 -10 -17 -16 -15 -7 1 -12 -7
-12 -19 0 -31 23 -18 34 19 11 40 30 41 46 2 7 -17 22 -43 34 -58 l21 -27 6
35 6 35 2 -42 1 -42 -77 -3 -78 -3 -3 -35 -4 -35 -18 45 c-26 62 -24 93 6 129
28 34 58 42 52 14z m103 -36 l-4 -42 -13 30 c-19 43 -18 64 4 58 14 -3 17 -12
13 -46z m36 -14 c-3 -10 -5 -4 -5 12 0 17 2 24 5 18 2 -7 2 -21 0 -30z m-1737
-9 c-18 -21 -24 -10 -9 18 8 14 14 18 17 10 2 -7 -2 -19 -8 -28z m901 6 c16
-9 19 -22 19 -83 0 -44 -4 -67 -9 -58 -6 9 -23 12 -55 10 -30 -3 -47 0 -51 8
-2 7 0 13 5 13 14 0 12 64 -2 78 -19 19 -3 29 65 41 5 0 17 -4 28 -9z m-682
-17 c0 -11 -3 -13 -6 -6 -3 10 -8 9 -20 -2 -18 -19 -33 -19 -33 -1 0 13 9 17
53 25 4 0 7 -7 6 -16z m1142 7 c16 0 19 -8 20 -47 1 -43 2 -45 9 -18 l8 30 1
-36 c1 -36 1 -36 -46 -42 -57 -6 -63 0 -63 65 0 46 11 61 38 52 8 -2 22 -4 33
-4z m-1221 -15 c0 -8 -7 -15 -15 -15 -26 0 -18 20 13 29 1 1 2 -6 2 -14z m330
-21 c0 -19 -5 -24 -25 -24 -20 0 -25 5 -25 24 0 13 6 26 13 29 22 7 37 -4 37
-29z m702 -41 c1 -47 3 -61 5 -35 3 32 8 42 22 42 16 0 19 -15 24 -142 9 -191
9 -338 0 -338 -5 0 -7 53 -5 117 4 140 -9 184 -75 254 l-44 47 -39 -41 -39
-42 -1 108 0 107 75 0 75 0 2 -77z m262 30 c-10 -59 -23 -72 -17 -18 5 43 4
48 -11 42 -10 -4 -15 -3 -11 3 3 6 15 10 26 10 18 0 19 -4 13 -37z m313 15
c-3 -8 -6 -5 -6 6 -1 11 2 17 5 13 3 -3 4 -12 1 -19z m-1030 -390 c-1 -73 -3
-14 -3 132 0 146 2 205 3 133 2 -73 2 -193 0 -265z m-497 348 l0 -33 -59 -6
c-33 -4 -78 -9 -100 -13 -41 -6 -41 -6 -41 25 0 33 -1 32 95 50 96 17 105 15
105 -23z m1827 -3 c-3 -10 -5 -4 -5 12 0 17 2 24 5 18 2 -7 2 -21 0 -30z
m-217 -28 c0 -30 -4 -55 -10 -55 -5 0 -10 15 -10 33 0 17 -5 39 -10 47 -7 11
-10 0 -10 -37 0 -28 5 -55 10 -58 6 -4 10 -65 10 -150 l0 -143 -34 10 c-30 9
-33 13 -20 25 20 20 19 113 -1 113 -11 0 -15 -12 -15 -47 0 -27 -5 -55 -10
-63 -7 -10 -9 20 -8 95 3 109 3 110 28 113 25 3 25 4 21 87 l-3 85 31 0 c31 0
31 0 31 -55z m-829 35 c12 0 11 -147 -1 -170 -6 -11 12 3 39 30 28 28 54 50
60 50 18 0 91 -93 96 -124 3 -17 4 -83 3 -146 l-4 -115 -2 131 c-2 125 -3 132
-31 176 -39 61 -64 68 -103 31 -54 -51 -62 -77 -68 -223 l-7 -135 -3 135 -4
135 -6 -135 c-5 -124 -6 -117 -8 93 -2 221 -1 227 18 227 11 0 20 5 20 10 0 6
-9 10 -20 10 -12 0 -20 7 -20 16 0 11 5 14 16 10 9 -3 20 -6 25 -6z m637 -2
c9 -9 12 -9 12 0 0 7 9 12 20 12 18 0 19 -3 10 -21 -6 -11 -9 -28 -7 -37 3
-12 5 -10 6 6 0 13 5 21 10 18 5 -4 12 0 14 6 3 7 6 -2 6 -21 l1 -33 -65 4
c-35 2 -67 7 -71 10 -3 4 -3 20 1 35 l7 28 13 -30 13 -30 1 33 c1 34 9 40 29
20z m-1188 -19 c0 -11 -4 -17 -10 -14 -5 3 -10 13 -10 21 0 8 5 14 10 14 6 0
10 -9 10 -21z m-543 -122 c-2 -23 -3 -1 -3 48 0 50 1 68 3 42 2 -26 2 -67 0
-90z m1345 66 c-5 -119 -9 -131 -10 -30 -1 53 1 97 6 97 4 0 6 -30 4 -67z
m779 -76 c-8 -62 -8 -83 1 -88 15 -10 -5 -35 -44 -55 l-29 -15 21 40 c23 46
49 148 51 201 1 19 3 27 6 17 3 -10 0 -55 -6 -100z m-1809 51 c2 -24 2 -105 0
-180 -3 -129 -4 -138 -23 -138 -16 0 -19 7 -19 44 0 50 -4 53 -95 70 l-60 12
-3 105 -3 106 68 10 c37 5 82 11 100 11 31 2 32 0 35 -40z m248 -168 l0 -210
-28 0 -29 0 -6 122 c-4 66 -7 161 -7 210 l0 88 35 0 35 0 0 -210z m420 139 c0
-62 -2 -70 -15 -59 -29 24 -45 4 -45 -55 0 -30 5 -55 10 -55 6 0 10 26 11 58
0 31 3 51 6 45 2 -7 11 -13 19 -13 11 0 14 -26 14 -140 0 -133 -1 -140 -20
-140 -17 0 -20 7 -22 53 l-2 52 -3 -53 c-2 -30 -8 -50 -14 -47 -5 4 -9 92 -9
210 0 215 0 213 48 214 21 1 22 -3 22 -70z m485 61 c-11 -5 -15 -9 -8 -9 8 -1
11 -38 9 -133 -2 -73 -4 -166 -5 -205 l-1 -73 -29 0 c-17 0 -31 6 -35 16 -3 9
-6 72 -6 141 0 108 2 128 18 139 16 13 16 13 0 14 -15 0 -18 9 -18 53 0 30 3
57 7 60 3 4 25 7 47 6 32 0 37 -2 21 -9z m194 -6 l31 -6 0 -94 c0 -77 -3 -94
-15 -94 -11 0 -15 -10 -14 -37 1 -24 3 -29 6 -15 7 35 23 26 23 -13 0 -19 -4
-35 -9 -35 -5 0 -23 -3 -40 -6 l-31 -6 0 156 c0 86 4 156 9 156 5 0 23 -3 40
-6z m119 -106 l3 -98 -36 0 -35 0 0 101 0 100 33 -3 32 -3 3 -97z m359 -15
c-3 -10 -5 -2 -5 17 0 19 2 27 5 18 2 -10 2 -26 0 -35z m-2577 -13 c0 -11 7
-20 16 -20 11 0 14 6 9 20 -5 16 -2 20 19 20 19 0 26 -5 26 -20 0 -11 5 -20
10 -20 6 0 10 9 10 19 0 18 3 19 33 8 l32 -12 -27 -3 c-26 -3 -28 -7 -28 -46
l0 -43 -87 -5 c-49 -3 -89 -4 -91 -3 -2 1 -6 19 -9 39 -6 36 -6 36 31 36 23 0
35 4 31 10 -9 14 1 40 15 40 5 0 10 -9 10 -20z m-50 -5 c0 -8 -9 -15 -20 -15
-22 0 -27 15 -7 23 21 9 27 7 27 -8z m2268 -117 c3 -36 2 -38 -25 -38 -26 0
-29 -3 -28 -32 0 -17 6 -33 13 -35 7 -3 12 5 12 21 0 41 35 29 41 -13 2 -14
10 -26 18 -29 10 -3 12 3 9 27 -3 20 -1 30 6 28 20 -6 19 -57 -1 -75 -11 -9
-23 -26 -28 -37 -8 -18 -9 -18 -13 8 -4 35 -32 36 -32 1 0 -31 -23 -28 -28 4
-5 32 -29 27 -34 -8 -4 -29 -4 -30 38 -30 71 0 74 -8 74 -196 0 -154 -1 -164
-19 -164 -43 0 -47 -39 -16 -163 4 -16 3 -27 -3 -27 -12 0 -15 9 -52 129 -14
47 -30 86 -36 88 -6 2 -17 -10 -24 -27 -12 -29 -37 -50 -59 -50 -7 0 -11 62
-12 188 0 103 -4 224 -7 269 -6 65 -4 84 6 88 26 10 35 5 22 -10 -10 -12 -10
-15 3 -15 9 0 21 9 27 20 8 14 21 20 47 20 l36 0 -7 41 c-8 51 -2 61 37 57 29
-3 32 -7 35 -40z m-681 -90 c-2 -24 -4 -5 -4 42 0 47 2 66 4 43 2 -24 2 -62 0
-85z m-1037 66 c0 -17 5 -24 20 -24 11 0 20 5 20 10 0 6 -4 10 -10 10 -5 0
-10 9 -10 20 0 17 7 20 45 20 41 0 45 -2 45 -25 0 -14 -4 -25 -10 -25 -5 0
-10 7 -10 15 0 8 -9 15 -20 15 -11 0 -20 -4 -20 -10 0 -5 6 -10 14 -10 16 0
28 -37 15 -46 -5 -3 -9 -116 -9 -253 l0 -247 -65 -1 -65 0 0 167 c0 92 -3 201
-6 243 -6 66 -5 77 9 77 9 0 19 5 23 11 4 8 0 9 -15 4 -19 -6 -21 -3 -21 34 0
36 3 40 28 43 36 5 42 1 42 -28z m-440 7 c-6 -12 -10 -135 -10 -329 l0 -309
-29 -41 c-16 -22 -34 -43 -40 -46 -7 -5 -11 108 -13 359 -3 318 -1 365 12 367
8 0 27 2 43 3 15 1 30 5 34 9 12 12 14 6 3 -13z m603 13 c9 -10 -4 -34 -19
-34 -8 0 -14 9 -14 20 0 19 19 27 33 14z m1887 -24 c0 -11 4 -20 9 -20 5 0 7
9 4 20 -4 14 0 20 10 20 9 0 19 -9 22 -20 3 -11 11 -20 16 -20 5 0 9 9 9 20 0
11 7 20 15 20 8 0 15 -9 15 -20 0 -11 6 -20 14 -20 9 0 12 7 9 20 -3 11 0 20
6 20 6 0 11 -11 11 -25 0 -31 15 -33 25 -2 7 21 7 21 12 2 3 -10 0 -21 -6 -23
-6 -2 -11 -13 -11 -23 0 -13 -4 -18 -12 -13 -19 12 -68 15 -68 4 0 -33 -12
-45 -48 -48 -24 -2 -28 2 -28 20 1 20 -3 23 -31 20 -27 -3 -34 1 -48 28 -21
40 -12 52 10 13 l16 -28 -5 35 -6 35 21 -25 c15 -18 19 -20 15 -7 -3 11 -4 23
0 28 10 16 24 10 24 -11z m-1890 -30 c0 -5 -7 -7 -15 -4 -8 4 -15 8 -15 10 0
2 7 4 15 4 8 0 15 -4 15 -10z m-55 -225 c-3 -158 3 -212 20 -185 13 20 17 264
5 296 -6 14 -6 23 -1 19 5 -3 12 3 14 12 3 10 5 -73 6 -184 l1 -201 -28 -10
-29 -10 -7 219 c-4 121 -3 225 1 232 15 24 21 -39 18 -188z m55 175 c0 -5 -2
-10 -4 -10 -3 0 -8 5 -11 10 -3 6 -1 10 4 10 6 0 11 -4 11 -10z m971 -48 c-46
-2 -88 1 -92 5 -5 4 33 6 84 3 l92 -5 -84 -3z m-773 -10 c7 -5 10 -16 6 -25
-5 -14 0 -17 27 -16 19 0 28 3 22 6 -26 10 -13 33 17 33 25 0 30 -4 30 -25 0
-14 5 -25 10 -25 6 0 10 12 10 26 0 26 2 26 47 21 29 -3 52 -12 60 -23 12 -16
13 -16 13 -1 0 9 7 17 15 17 9 0 15 -9 15 -25 0 -23 -4 -25 -44 -25 -39 0 -44
2 -39 20 3 11 1 20 -5 20 -5 0 -12 -9 -15 -21 -7 -25 31 -42 83 -37 l35 3 0
-207 0 -207 -29 27 c-15 15 -32 37 -37 49 -5 15 -18 23 -41 25 -31 3 -33 5
-36 46 -4 52 -22 46 -22 -9 0 -37 -2 -39 -30 -39 -28 0 -30 3 -30 35 0 23 -4
33 -12 30 -23 -9 -53 25 -74 82 l-13 38 -1 -47 c0 -39 -3 -46 -16 -41 -13 5
-15 2 -9 -17 5 -15 4 -20 -4 -16 -7 5 -8 1 -4 -10 5 -14 3 -16 -13 -10 -16 6
-16 4 4 -17 12 -13 22 -27 22 -31 0 -5 -78 34 -99 51 -2 2 0 13 6 26 6 12 14
31 18 42 7 19 7 19 18 -2 19 -43 24 -23 19 82 l-5 105 129 0 c87 0 124 3 114
10 -8 5 -68 10 -132 10 -72 0 -118 4 -118 10 0 6 4 10 9 10 4 0 6 11 3 25 -3
19 0 25 13 25 12 0 16 -6 12 -20 -4 -15 0 -20 15 -20 11 0 16 5 13 10 -17 27
14 50 43 32z m1820 -203 l2 -197 -36 8 c-20 5 -42 6 -50 3 -11 -4 -14 33 -16
194 l-3 198 50 -5 50 -5 3 -196z m-1419 192 c21 -14 5 -41 -24 -41 -29 0 -45
27 -24 41 8 5 19 9 24 9 6 0 16 -4 24 -9z m1111 -6 c0 -8 4 -15 9 -15 5 0 11
7 15 15 8 22 26 18 26 -5 0 -16 7 -20 30 -20 27 0 30 -3 30 -31 0 -27 -2 -30
-22 -23 -13 4 -48 12 -78 19 -45 9 -56 15 -58 33 -4 25 13 30 22 7 3 -8 11
-15 18 -14 10 0 10 2 1 6 -15 6 -17 43 -3 43 6 0 10 -7 10 -15z m140 -21 c0
-21 -4 -33 -10 -29 -5 3 -10 15 -10 26 0 13 -7 19 -22 20 -22 0 -22 1 -3 9 37
16 45 11 45 -26z m-1150 6 c0 -16 -7 -20 -30 -20 -23 0 -30 4 -30 20 0 16 7
20 30 20 23 0 30 -4 30 -20z m68 3 c-2 -10 -13 -19 -26 -21 -17 -3 -22 2 -22
17 0 16 6 21 26 21 19 0 25 -5 22 -17z m62 -3 c0 -15 -7 -20 -25 -20 -18 0
-25 5 -25 20 0 15 7 20 25 20 18 0 25 -5 25 -20z m50 -36 l0 -57 -67 6 c-38 4
-112 7 -165 7 l-98 0 0 26 0 26 150 -4 150 -4 0 28 c0 18 5 28 15 28 12 0 15
-13 15 -56z m170 46 c0 -5 -4 -10 -10 -10 -5 0 -10 -12 -10 -26 0 -14 4 -23
10 -19 6 3 10 1 10 -4 0 -7 -29 -11 -75 -11 l-75 0 0 33 c0 19 3 37 7 40 10
11 143 8 143 -3z m160 -12 c0 -25 -42 -23 -65 2 -18 19 -17 20 24 17 31 -1 41
-6 41 -19z m70 -8 c0 -25 4 -30 25 -30 18 0 25 -5 25 -19 0 -17 -7 -18 -72
-14 -90 6 -98 8 -98 29 0 14 8 16 58 11 45 -4 52 -3 35 5 -32 15 -30 48 2 48
21 0 25 -5 25 -30z m40 10 c0 -11 -4 -20 -10 -20 -5 0 -10 9 -10 20 0 11 5 20
10 20 6 0 10 -9 10 -20z m-1640 -14 c0 -7 -11 -16 -25 -18 -19 -4 -25 -1 -25
13 0 14 7 19 25 19 15 0 25 -6 25 -14z m80 4 c0 -5 -8 -10 -17 -10 -17 -1 -17
-1 0 -14 12 -9 17 -27 17 -63 l0 -50 -67 -7 c-38 -4 -90 -13 -118 -21 -50 -14
-49 -14 50 -9 55 3 108 8 118 10 11 4 17 0 17 -10 0 -9 -8 -17 -17 -17 -17 -1
-17 -2 0 -6 14 -4 17 -17 17 -89 l0 -84 -57 -55 c-53 -50 -59 -53 -67 -35 -13
28 -26 25 -26 -7 0 -16 -5 -35 -10 -43 -9 -13 -11 -13 -20 0 -5 8 -8 21 -5 27
2 7 -5 29 -17 49 -12 20 -27 61 -34 93 l-12 56 -2 -70 c-4 -97 -4 -99 -13
-112 -4 -6 -1 -14 5 -17 10 -5 10 -7 1 -12 -15 -7 -17 -34 -3 -34 6 0 10 -5
10 -11 0 -6 -12 -9 -27 -7 -24 3 -28 8 -29 37 -1 19 5 45 13 58 8 12 17 51 20
85 l5 63 -20 -24 -19 -24 -6 33 c-12 58 -8 170 6 171 6 0 50 7 97 14 l85 14
-97 -5 -98 -6 0 35 c0 37 12 47 55 47 18 0 22 4 18 20 -4 14 0 20 12 20 12 0
15 -5 10 -19 -5 -17 -2 -18 28 -11 19 4 58 5 86 2 50 -4 51 -4 51 22 0 22 4
26 30 26 17 0 30 -4 30 -10z m-180 -15 c0 -8 -4 -15 -9 -15 -5 0 -11 7 -15 15
-3 9 0 15 9 15 8 0 15 -7 15 -15z m-87 -10 c1 -5 -10 -11 -25 -13 -16 -2 -28
1 -28 7 0 20 49 26 53 6z m2304 -46 l23 -9 0 -212 0 -212 -79 75 -78 74 -2
154 -1 153 57 -7 c31 -4 67 -11 80 -16z m-742 1 c3 -5 8 -93 11 -196 l4 -186
-31 -29 c-23 -21 -41 -29 -69 -29 -74 0 -70 -12 -70 231 l0 219 74 0 c41 0 78
-4 81 -10z m-180 -40 c3 -5 3 -81 -1 -170 -7 -159 -7 -161 -38 -202 l-31 -42
-7 52 c-10 68 -39 124 -81 156 -46 36 -70 33 -117 -14 -22 -22 -42 -40 -45
-40 -3 0 -5 61 -5 135 l0 135 159 0 c91 0 162 -4 166 -10z m455 -115 c0 -113
-2 -125 -19 -135 -11 -5 -24 -10 -30 -10 -15 0 -44 61 -77 163 -34 104 -32
107 64 107 l62 0 0 -125z m-622 -110 c35 -29 58 -83 68 -154 6 -49 5 -53 -35
-106 -23 -30 -46 -55 -51 -55 -6 0 -10 65 -11 163 -1 96 -4 150 -9 132 -10
-41 -11 -220 -1 -272 5 -24 4 -43 0 -43 -5 0 -9 8 -9 18 0 57 -22 204 -36 241
-15 39 -18 42 -30 27 -7 -10 -10 -34 -8 -57 3 -21 1 -39 -3 -39 -4 0 -9 -16
-10 -35 -1 -19 3 -35 9 -35 6 0 6 -6 -2 -15 -10 -12 -10 -18 -1 -29 13 -16 9
-20 -31 -30 -24 -5 -28 -3 -28 14 0 11 3 20 8 20 4 0 7 15 6 33 0 17 6 50 13
72 7 22 15 52 18 68 7 35 71 107 95 107 10 0 32 -11 48 -25z m-483 -112 c138
-113 235 -252 291 -419 26 -78 94 -367 93 -394 0 -8 -31 75 -68 185 -69 204
-101 288 -107 283 -1 -2 31 -113 71 -248 41 -134 73 -245 72 -247 -2 -1 -20
14 -40 35 -28 29 -43 58 -66 134 -59 190 -114 305 -186 383 -28 31 -32 33 -17
10 50 -77 104 -202 137 -314 19 -67 35 -124 35 -127 0 -2 -22 12 -48 31 -48
34 -50 38 -87 152 -20 65 -46 135 -56 155 -25 48 -77 108 -95 108 -8 0 -14 6
-14 14 0 7 -21 85 -46 172 -67 233 -68 212 5 173 34 -19 91 -58 126 -86z
m-265 82 c-7 -8 -16 -15 -21 -15 -5 0 -9 7 -9 15 0 9 9 15 21 15 18 0 19 -2 9
-15z m1246 -32 c32 -42 68 -141 62 -170 -3 -12 -18 10 -45 62 -23 44 -53 91
-67 104 -20 19 -23 27 -14 38 16 19 28 12 64 -34z m274 -54 c30 -142 40 -178
70 -244 23 -49 70 -185 70 -201 0 -2 -13 -4 -30 -4 -22 0 -28 4 -24 15 4 8 1
15 -6 15 -6 0 -9 4 -6 9 8 12 -45 114 -54 104 -14 -15 -20 -73 -8 -73 7 0 3
-7 -8 -15 -17 -13 -17 -14 -1 -15 18 0 25 -20 7 -20 -5 0 -10 -7 -10 -16 0 -9
5 -12 12 -8 7 4 8 3 4 -4 -4 -6 -24 -19 -44 -28 -20 -10 -41 -19 -45 -21 -4
-3 1 10 12 28 15 24 17 36 10 46 -8 9 -5 20 10 42 12 16 21 35 21 41 0 7 9 28
21 46 28 45 16 44 -15 -2 -13 -19 -26 -32 -29 -27 -2 4 -8 34 -11 66 -8 63
-21 74 -30 25 -3 -18 -18 -58 -32 -88 -15 -30 -27 -73 -28 -95 -1 -42 -3 -45
-56 -105 l-32 -35 7 29 c3 15 8 65 11 110 3 44 8 83 10 85 2 2 8 -9 14 -24 10
-26 12 -27 27 -12 14 14 15 22 4 58 -18 59 -23 131 -12 178 12 57 70 146 85
131 8 -8 5 -22 -12 -52 l-23 -42 26 24 c14 13 30 42 36 64 6 23 15 58 20 80 6
21 12 36 14 34 3 -2 14 -47 25 -99z m-1592 -26 c49 -104 115 -323 97 -323 -3
0 -23 9 -44 20 -34 17 -39 25 -46 66 -9 65 -51 184 -70 203 -14 14 -15 14 -11
1 30 -91 56 -185 56 -203 -1 -19 -6 -16 -40 22 -22 24 -40 38 -40 32 0 -6 -5
-11 -10 -11 -7 0 -7 6 0 19 18 34 11 32 -24 -7 -19 -20 -38 -33 -42 -29 -9 9
35 153 73 240 36 81 51 76 101 -30z m36 34 c34 -44 63 -116 91 -221 33 -131
18 -137 -25 -10 -46 135 -62 174 -100 236 -25 41 -27 47 -11 38 11 -6 31 -25
45 -43z m453 1 c53 -55 73 -91 73 -135 0 -15 10 -33 25 -45 24 -19 34 -48 16
-48 -19 0 -81 81 -82 108 0 15 -4 36 -8 46 -7 19 -8 18 -14 -4 -6 -23 -10 -21
-71 45 -51 56 -60 71 -47 77 37 15 58 6 108 -44z m1220 30 c6 -13 22 -63 37
-113 15 -49 44 -132 64 -183 35 -90 35 -95 21 -135 -7 -23 -18 -41 -24 -39
-11 2 -10 -2 -60 182 -21 74 -48 172 -61 216 -29 98 -28 94 -6 94 11 0 23 -10
29 -22z m-2342 3 c3 -5 1 -12 -5 -16 -5 -3 -10 1 -10 9 0 18 6 21 15 7z m523
2 c-2 -5 -12 -31 -23 -60 -16 -43 -26 -55 -58 -69 -21 -10 -40 -22 -44 -26 -3
-5 13 0 36 11 23 12 41 19 41 17 0 -24 -58 -155 -73 -167 -21 -17 -20 -17 14
-38 94 -57 118 -66 140 -53 24 16 48 3 184 -99 88 -66 220 -192 179 -171 -33
17 -242 70 -339 86 -126 21 -183 25 -400 32 -104 3 -191 7 -193 8 -5 6 224
222 298 281 52 42 82 74 97 106 24 50 112 149 132 149 7 0 11 -3 9 -7z m1937
-50 c14 -21 25 -43 25 -49 0 -7 5 -14 10 -16 15 -5 38 -77 44 -139 6 -57 5
-54 -20 54 -9 37 -20 69 -24 72 -4 2 -1 -21 6 -53 22 -93 29 -215 14 -267 -18
-63 -26 -63 -22 -1 2 29 -3 77 -12 107 -94 330 -94 329 -62 329 9 0 27 -17 41
-37z m-2463 -15 c-9 -9 -12 -7 -12 12 0 19 3 21 12 12 9 -9 9 -15 0 -24z
m1799 -74 c-34 -36 -68 -76 -77 -89 -9 -14 -20 -22 -25 -19 -5 3 -9 -2 -9 -10
0 -24 10 -20 52 21 21 20 38 34 38 31 0 -3 -28 -43 -63 -90 -55 -74 -69 -102
-112 -229 -51 -153 -92 -255 -100 -248 -8 9 26 236 51 339 14 58 41 138 60
179 25 54 29 70 16 58 -26 -24 -70 -116 -104 -217 l-28 -85 6 64 c4 35 10 78
15 95 5 17 9 40 8 51 -1 33 -19 -18 -39 -110 l-18 -80 -1 106 -1 107 80 96
c55 67 80 91 80 77 0 -27 29 -41 83 -41 33 0 54 7 86 30 23 17 45 38 49 48 6
16 7 16 10 -1 2 -11 -19 -42 -57 -83z m-1796 16 c-4 -12 -2 -20 5 -20 7 0 9
-8 5 -19 -3 -11 -2 -22 4 -25 11 -7 3 -43 -17 -73 -13 -21 -39 -23 -27 -2 3 5
-1 6 -9 3 -9 -3 -16 -1 -16 5 0 6 5 11 11 11 6 0 8 9 4 21 -4 13 -1 27 10 39
9 10 16 27 15 37 -4 31 0 43 11 43 6 0 8 -9 4 -20z m1865 -106 l8 -99 -42 -65
c-24 -36 -76 -101 -115 -145 -113 -125 -112 -145 1 -29 56 57 103 103 104 101
2 -2 -22 -55 -54 -117 -52 -105 -61 -117 -102 -138 -25 -13 -67 -44 -94 -70
-28 -27 -45 -39 -41 -27 11 27 47 139 86 265 45 148 61 182 129 272 33 43 60
83 60 87 0 5 7 25 16 46 22 54 33 34 44 -81z m-1740 98 c0 -14 -49 -56 -57
-49 -3 4 4 18 17 32 24 25 40 32 40 17z m0 -48 c0 -11 -58 -89 -84 -113 -16
-16 -24 -31 -21 -42 3 -10 -1 -34 -9 -53 -11 -26 -12 -36 -3 -36 16 0 -44 -49
-61 -50 -8 0 -10 5 -6 12 4 6 -8 2 -28 -10 -36 -22 -96 -28 -147 -13 -22 6
-21 8 26 56 60 60 133 105 133 81 0 -31 31 -15 63 31 57 83 137 164 137 137z
m139 -10 c7 -6 -20 -34 -31 -31 -6 1 -12 -6 -13 -16 -3 -17 -65 -96 -103 -130
-12 -11 -26 -16 -33 -11 -7 4 -10 3 -5 -4 3 -6 2 -13 -4 -17 -6 -4 -10 10 -10
37 0 52 23 87 95 147 38 31 56 39 75 35 14 -3 27 -7 29 -10z m1705 -51 c10
-21 11 -34 3 -53 l-10 -25 -7 30 c-9 36 -12 75 -5 75 2 0 11 -12 19 -27z m712
-2 c37 -17 74 -53 74 -73 0 -4 -21 8 -46 27 -25 19 -50 35 -56 35 -7 0 10 -14
36 -31 42 -28 77 -65 101 -108 5 -8 -24 11 -63 43 -69 56 -125 126 -99 126 7
0 31 -9 53 -19z m-1348 -69 c47 -68 78 -166 86 -272 7 -93 2 -82 -19 40 -17
104 -45 174 -94 234 -17 21 -31 43 -31 47 0 22 20 5 58 -49z m-813 9 c-10 -10
-34 10 -29 24 6 14 8 13 19 -2 8 -10 12 -20 10 -22z m-28 -8 c4 -10 13 -24 20
-32 24 -23 6 -24 -32 -1 -29 18 -33 25 -24 36 15 19 28 18 36 -3z m2060 -95
c-2 -18 -4 -4 -4 32 0 36 2 50 4 33 2 -18 2 -48 0 -65z m-1623 50 c21 -34 27
-61 16 -78 -9 -13 -13 -12 -30 8 l-19 23 6 -38 c4 -21 10 -49 14 -63 7 -21 8
-19 6 13 -2 20 0 37 3 37 3 0 20 -15 38 -32 29 -31 89 -165 78 -176 -3 -3 -46
35 -95 83 -87 85 -90 89 -97 143 -6 53 -5 57 22 79 36 28 40 28 58 1z m1936
-24 c0 -2 -9 0 -20 6 -11 6 -20 13 -20 16 0 2 9 0 20 -6 11 -6 20 -13 20 -16z
m-2037 -44 l6 -45 -20 24 c-20 25 -23 39 -13 66 10 24 21 6 27 -45z m1167 43
c-2 -22 -77 -163 -83 -156 -5 4 -5 0 -2 -9 6 -15 -29 -98 -41 -98 -3 0 -2 5 1
10 3 6 4 10 1 10 -3 0 -13 -16 -22 -35 -23 -50 -34 -43 -20 13 34 126 115 272
152 272 8 0 14 -3 14 -7z"/>
<path d="M2816 3973 c-2 -27 -8 -65 -12 -87 -5 -28 -3 -37 5 -32 6 4 11 18 11
32 0 15 6 24 15 24 12 0 15 13 15 55 0 41 -4 55 -14 55 -9 0 -16 -16 -20 -47z"/>
<path d="M2802 3778 c2 -12 9 -23 16 -26 18 -6 15 35 -4 42 -11 4 -15 0 -12
-16z"/>
<path d="M2760 3770 c0 -11 5 -20 10 -20 6 0 10 9 10 20 0 11 -4 20 -10 20 -5
0 -10 -9 -10 -20z"/>
<path d="M2717 3774 c-3 -3 -3 -13 0 -21 5 -12 7 -12 14 -1 15 23 4 40 -14 22z"/>
<path d="M2330 3896 c0 -20 5 -36 10 -36 6 0 10 13 10 29 0 17 -4 33 -10 36
-6 4 -10 -8 -10 -29z"/>
<path d="M2360 3896 c0 -20 5 -36 10 -36 6 0 10 13 10 29 0 17 -4 33 -10 36
-6 4 -10 -8 -10 -29z"/>
<path d="M2283 3885 c0 -22 2 -30 4 -17 2 12 2 30 0 40 -3 9 -5 -1 -4 -23z"/>
<path d="M2280 3655 c0 -19 5 -35 10 -35 6 0 10 16 10 35 0 19 -4 35 -10 35
-5 0 -10 -16 -10 -35z"/>
<path d="M2670 3470 c0 -11 2 -20 4 -20 2 0 6 9 9 20 3 11 1 20 -4 20 -5 0 -9
-9 -9 -20z"/>
<path d="M1640 3416 c0 -20 5 -36 10 -36 6 0 10 13 10 29 0 17 -4 33 -10 36
-6 4 -10 -8 -10 -29z"/>
<path d="M2321 3381 c-16 -10 -6 -31 15 -31 8 0 14 9 14 20 0 22 -7 25 -29 11z"/>
<path d="M2433 3374 c-3 -8 -1 -20 6 -27 8 -8 11 -4 11 16 0 30 -7 35 -17 11z"/>
<path d="M2380 3285 c0 -36 13 -47 24 -19 11 28 6 54 -9 54 -10 0 -15 -11 -15
-35z"/>
<path d="M2285 3283 c13 -55 40 -59 29 -5 -4 19 -13 32 -21 32 -11 0 -13 -7
-8 -27z"/>
<path d="M2325 3288 c15 -48 41 -52 29 -4 -3 14 -13 26 -21 26 -10 0 -12 -6
-8 -22z"/>
<path d="M2336 3043 c-3 -3 -6 -24 -6 -45 0 -27 4 -38 15 -38 11 0 15 11 15
39 0 38 -10 57 -24 44z"/>
<path d="M2337 2883 c-4 -3 -7 -21 -7 -40 0 -26 4 -33 20 -33 14 0 20 7 20 24
0 44 -16 67 -33 49z"/>
<path d="M2330 2655 c0 -24 5 -35 15 -35 10 0 15 11 15 35 0 24 -5 35 -15 35
-10 0 -15 -11 -15 -35z"/>
<path d="M2620 3330 c0 -11 5 -20 10 -20 6 0 10 9 10 20 0 11 -4 20 -10 20 -5
0 -10 -9 -10 -20z"/>
<path d="M2075 3283 c4 -10 11 -180 15 -378 l6 -360 2 378 c2 340 0 377 -14
377 -12 0 -14 -5 -9 -17z"/>
<path d="M2010 3273 c0 -18 5 -22 30 -20 17 1 30 8 30 15 0 7 -4 10 -10 7 -5
-3 -10 0 -10 7 0 9 -3 9 -10 -2 -9 -13 -11 -13 -20 0 -8 12 -10 11 -10 -7z"/>
<path d="M2030 3190 c0 -11 7 -20 15 -20 8 0 15 9 15 20 0 11 -7 20 -15 20 -8
0 -15 -9 -15 -20z"/>
<path d="M2000 3001 c0 -38 2 -40 30 -39 28 1 30 4 30 40 0 41 -16 52 -23 16
l-4 -23 -2 23 c0 12 -8 22 -16 22 -11 0 -15 -11 -15 -39z"/>
<path d="M2027 2833 c-11 -10 -8 -43 3 -43 6 0 10 11 10 25 0 26 -2 29 -13 18z"/>
<path d="M2030 2603 c0 -28 3 -34 10 -23 13 20 13 47 0 55 -6 4 -10 -9 -10
-32z"/>
<path d="M1610 3210 c-13 -8 -12 -10 3 -10 9 0 17 5 17 10 0 12 -1 12 -20 0z"/>
<path d="M1624 3162 c-8 -5 -9 -14 -1 -32 8 -20 11 -22 14 -7 7 26 -1 47 -13
39z"/>
<path d="M1570 3147 c0 -7 6 -21 13 -32 17 -22 32 -5 22 25 -7 22 -35 28 -35
7z"/>
<path d="M3370 3000 c0 -11 4 -20 9 -20 5 0 7 9 4 20 -3 11 -7 20 -9 20 -2 0
-4 -9 -4 -20z"/>
<path d="M3281 2994 c0 -11 3 -14 6 -6 3 7 2 16 -1 19 -3 4 -6 -2 -5 -13z"/>
<path d="M2635 2957 c0 -17 5 -41 12 -52 11 -17 12 -13 13 33 0 35 -4 52 -12
52 -8 0 -13 -13 -13 -33z"/>
<path d="M2580 2945 c0 -19 5 -35 10 -35 6 0 10 16 10 35 0 19 -4 35 -10 35
-5 0 -10 -16 -10 -35z"/>
<path d="M2612 2950 c0 -19 2 -27 5 -17 2 9 2 25 0 35 -3 9 -5 1 -5 -18z"/>
<path d="M3070 2940 c0 -33 3 -35 31 -20 29 16 25 50 -6 50 -21 0 -25 -5 -25
-30z m27 -2 c-3 -8 -6 -5 -6 6 -1 11 2 17 5 13 3 -3 4 -12 1 -19z"/>
<path d="M3490 2740 c0 -11 5 -20 10 -20 6 0 10 9 10 20 0 11 -4 20 -10 20 -5
0 -10 -9 -10 -20z"/>
<path d="M1896 2734 c-3 -9 -6 -31 -6 -50 0 -30 3 -34 25 -34 22 0 25 4 25 34
0 43 -9 66 -25 66 -7 0 -16 -7 -19 -16z"/>
<path d="M1827 2723 c-4 -3 -7 -24 -7 -45 0 -27 4 -38 15 -38 11 0 15 12 15
45 0 42 -7 54 -23 38z"/>
<path d="M2160 2771 c0 -17 5 -31 10 -31 6 0 10 11 10 24 0 14 -4 28 -10 31
-6 4 -10 -7 -10 -24z"/>
<path d="M3080 2665 c0 -19 5 -35 10 -35 6 0 10 16 10 35 0 19 -4 35 -10 35
-5 0 -10 -16 -10 -35z"/>
<path d="M3290 2777 c0 -36 3 -43 20 -43 17 0 20 7 20 43 0 36 -3 43 -20 43
-17 0 -20 -7 -20 -43z m17 -14 c-3 -10 -5 -2 -5 17 0 19 2 27 5 18 2 -10 2
-26 0 -35z"/>
<path d="M3400 2758 c0 -23 2 -39 5 -37 8 9 12 79 4 79 -5 0 -9 -19 -9 -42z"/>
<path d="M3302 2423 c2 -14 8 -28 14 -30 7 -2 9 8 6 27 -5 37 -25 40 -20 3z"/>
<path d="M3390 2321 c0 -23 5 -41 10 -41 6 0 10 15 10 34 0 19 -4 38 -10 41
-6 4 -10 -10 -10 -34z"/>
<path d="M3330 2225 c0 -22 5 -35 13 -35 9 0 12 11 9 35 -2 19 -8 35 -13 35
-5 0 -9 -16 -9 -35z"/>
<path d="M1665 2559 c-4 -6 -5 -13 -2 -16 7 -7 27 6 27 18 0 12 -17 12 -25 -2z"/>
<path d="M1742 2410 c0 -14 2 -19 5 -12 2 6 2 18 0 25 -3 6 -5 1 -5 -13z"/>
<path d="M1700 2404 c0 -8 5 -12 10 -9 6 3 10 10 10 16 0 5 -4 9 -10 9 -5 0
-10 -7 -10 -16z"/>
<path d="M1683 2310 c0 -30 2 -43 4 -27 2 15 2 39 0 55 -2 15 -4 2 -4 -28z"/>
<path d="M1743 2315 c0 -27 2 -38 4 -22 2 15 2 37 0 50 -2 12 -4 0 -4 -28z"/>
<path d="M1713 2145 c0 -22 2 -30 4 -17 2 12 2 30 0 40 -3 9 -5 -1 -4 -23z"/>
<path d="M1230 2341 c0 -17 5 -31 10 -31 6 0 10 11 10 24 0 14 -4 28 -10 31
-6 4 -10 -7 -10 -24z"/>
<path d="M3790 2496 c0 -8 10 -13 25 -13 20 0 23 2 14 13 -6 8 -18 14 -25 14
-8 0 -14 -6 -14 -14z"/>
<path d="M1843 2103 c-16 -6 -17 -36 -1 -31 6 2 12 12 14 21 1 9 2 17 1 16 -1
0 -8 -3 -14 -6z"/>
<path d="M3830 2303 c0 -18 5 -33 10 -33 13 0 13 30 0 50 -7 11 -10 7 -10 -17z"/>
<path d="M3830 2171 c0 -23 5 -41 10 -41 6 0 10 15 10 34 0 19 -4 38 -10 41
-6 4 -10 -10 -10 -34z"/>
<path d="M2822 2373 c5 -25 28 -28 28 -4 0 12 -6 21 -16 21 -9 0 -14 -7 -12
-17z"/>
<path d="M2910 2245 c0 -19 5 -35 10 -35 6 0 10 16 10 35 0 19 -4 35 -10 35
-5 0 -10 -16 -10 -35z"/>
<path d="M2857 2173 c-11 -10 -8 -61 3 -68 6 -4 10 10 10 34 0 42 -2 46 -13
34z"/>
<path d="M2197 1789 c11 -19 33 -68 48 -109 34 -90 40 -98 41 -60 1 16 -3 27
-8 24 -5 -3 -6 5 -4 18 3 12 -1 37 -9 53 -9 17 -13 22 -10 12 3 -11 7 -31 10
-45 4 -19 1 -17 -9 9 -22 57 -55 117 -68 125 -6 4 -3 -8 9 -27z"/>
<path d="M3299 1823 c-55 -62 -60 -75 -11 -28 29 27 52 51 52 52 0 11 -20 -1
-41 -24z"/>
<path d="M1740 1527 c0 -3 17 -17 37 -33 20 -15 33 -23 29 -16 -8 13 -66 56
-66 49z"/>
<path d="M2787 1765 c-10 -38 -20 -79 -23 -90 -2 -11 7 5 21 35 16 34 25 68
23 90 -3 31 -5 27 -21 -35z"/>
<path d="M2974 1665 c-23 -16 -59 -83 -50 -92 3 -4 6 -1 6 5 0 6 16 31 35 56
19 25 34 46 32 46 -1 0 -12 -7 -23 -15z"/>
<path d="M2868 1588 c-15 -23 -35 -78 -25 -68 8 8 48 90 43 90 -2 0 -10 -10
-18 -22z"/>
<path d="M2870 1390 c-6 -11 -8 -20 -6 -20 3 0 10 9 16 20 6 11 8 20 6 20 -3
0 -10 -9 -16 -20z"/>
<path d="M1121 1614 c-12 -20 -20 -38 -19 -40 2 -1 14 13 27 32 13 19 22 37
19 40 -3 3 -15 -12 -27 -32z"/>
<path d="M999 1523 c-13 -16 -12 -17 4 -4 9 7 17 15 17 17 0 8 -8 3 -21 -13z"/>
<path d="M2535 4265 c-5 -2 -28 -7 -50 -11 -36 -6 -38 -8 -15 -14 24 -6 91 8
106 23 7 7 -22 9 -41 2z"/>
<path d="M3524 3739 c-53 -20 -136 -85 -155 -121 -7 -12 4 -6 23 14 62 61 162
108 263 121 17 2 5 4 -25 5 -33 1 -76 -7 -106 -19z"/>
<path d="M1115 3580 c-10 -11 -16 -22 -13 -25 3 -3 11 1 18 10 16 20 64 19 84
-1 14 -14 16 -14 16 0 0 36 -76 48 -105 16z"/>
<path d="M1255 3540 c-27 -10 -84 -22 -125 -28 l-75 -9 80 -1 c61 -1 91 3 125
19 25 11 70 24 100 28 l55 9 -55 0 c-31 1 -77 -7 -105 -18z"/>
<path d="M3307 3353 c-11 -10 -8 -83 3 -83 6 0 10 20 10 45 0 46 -2 50 -13 38z"/>
<path d="M3332 3309 c-1 -31 -7 -49 -17 -53 -11 -4 -15 -19 -13 -58 l1 -53 4
44 c3 25 11 50 19 56 11 8 14 24 11 60 l-3 50 -2 -46z"/>
<path d="M1236 3311 c-11 -4 14 -7 60 -7 63 0 88 -5 123 -23 23 -12 40 -17 36
-11 -23 38 -162 64 -219 41z"/>
<path d="M1431 2665 c-15 -50 -10 -65 14 -45 15 13 22 90 7 90 -4 0 -14 -20
-21 -45z"/>
<path d="M1099 1274 c-8 -11 -31 -33 -52 -49 -61 -45 -47 -48 359 -70 303 -16
468 -39 599 -82 135 -44 268 -117 381 -209 63 -51 61 -38 -2 19 -63 56 -208
143 -294 176 -189 73 -308 93 -700 116 -157 9 -296 19 -309 21 l-24 5 33 34
c18 18 30 39 28 46 -3 9 -9 7 -19 -7z"/>
<path d="M1530 1224 c19 -3 101 -11 182 -19 299 -31 510 -113 672 -263 57 -53
58 -53 16 -8 -119 127 -322 228 -542 271 -46 9 -146 18 -223 20 -77 2 -124 1
-105 -1z"/>
<path d="M1005 1128 c-33 -17 -55 -33 -48 -35 13 -5 56 17 93 46 34 28 26 26
-45 -11z"/>
<path d="M4070 1069 c16 -31 30 -59 30 -63 0 -3 -125 -6 -277 -6 -577 -1 -765
-30 -973 -155 -102 -60 -143 -96 -60 -52 81 44 249 100 360 122 129 24 375 34
688 28 l282 -6 0 21 c0 17 6 22 25 22 30 0 33 16 6 25 -18 6 -71 59 -99 101
-7 10 1 -6 18 -37z"/>
<path d="M1190 1100 c-41 -5 -103 -9 -138 -10 -35 -2 -58 -6 -51 -11 15 -9
-39 -128 -95 -209 -51 -74 -49 -80 26 -80 34 0 135 -4 223 -10 88 -5 243 -14
345 -20 338 -20 675 -71 732 -111 14 -10 68 -41 120 -68 166 -89 280 -89 453
-2 202 102 478 146 1160 187 154 9 283 20 287 23 9 8 -5 32 -64 111 -51 66
-56 67 -34 2 l15 -41 -62 -5 c-34 -3 -172 -8 -307 -11 -426 -10 -654 -34 -852
-91 -78 -23 -97 -25 -124 -15 -35 13 -63 5 -118 -33 -41 -28 -222 -30 -278 -4
-20 10 -53 22 -75 27 -21 5 -65 19 -98 31 -175 64 -385 88 -894 100 -222 6
-406 12 -408 14 -2 2 13 46 34 97 l38 94 155 13 c120 10 189 10 305 1 224 -16
258 -26 95 -29 -235 -3 -246 -15 -20 -23 113 -4 239 -13 281 -21 242 -45 461
-141 588 -260 l44 -41 -29 39 c-41 55 -170 156 -256 199 -163 81 -399 135
-681 157 -145 11 -204 11 -317 0z m290 -270 c372 -14 589 -40 763 -92 70 -21
23 -27 -58 -7 -94 23 -384 65 -505 74 -47 3 -233 12 -414 20 -180 8 -331 17
-335 21 -3 4 57 4 134 0 77 -3 264 -11 415 -16z m2700 1 c-8 -5 -98 -12 -200
-15 -496 -18 -812 -55 -1012 -119 -60 -19 -80 -22 -88 -12 -7 9 11 18 78 38
210 64 439 91 882 106 340 11 357 11 340 2z"/>
<path d="M3395 1084 c-134 -21 -366 -86 -353 -99 2 -2 41 7 87 20 113 33 254
62 381 79 98 13 101 14 40 14 -36 0 -105 -6 -155 -14z"/>
<path d="M2895 1034 c-33 -19 -76 -48 -95 -65 -19 -16 2 -6 46 23 45 29 90 58
100 65 44 27 4 10 -51 -23z"/>
<path d="M2805 1015 c-27 -19 -53 -42 -58 -51 -5 -9 17 5 49 31 72 58 68 55
62 55 -2 0 -26 -16 -53 -35z"/>
<path d="M1315 974 c-22 -2 -92 -9 -155 -15 -63 -6 -122 -15 -130 -21 -10 -6
5 -7 45 -3 33 3 177 8 320 12 417 9 636 -21 858 -121 31 -14 57 -23 57 -20 0
11 -171 84 -257 109 -142 42 -261 56 -488 60 -115 2 -228 1 -250 -1z"/>
<path d="M3338 923 c7 -3 16 -2 19 1 4 3 -2 6 -13 5 -11 0 -14 -3 -6 -6z"/>
<path d="M3268 913 c6 -2 18 -2 25 0 6 3 1 5 -13 5 -14 0 -19 -2 -12 -5z"/>
<path d="M1400 900 c-85 -5 -65 -6 110 -8 307 -3 562 -37 728 -97 34 -12 62
-21 62 -19 0 11 -88 45 -170 67 -124 33 -196 44 -360 57 -140 10 -192 10 -370
0z"/>
<path d="M3135 893 c-78 -16 -289 -82 -283 -88 2 -2 46 10 98 26 52 17 142 41
200 54 58 13 94 23 80 23 -14 0 -56 -6 -95 -15z"/>
<path d="M3448 893 c12 -2 32 -2 45 0 12 2 2 4 -23 4 -25 0 -35 -2 -22 -4z"/>
<path d="M3220 865 c-167 -32 -252 -53 -333 -83 -90 -33 -80 -39 12 -7 81 27
308 79 439 99 54 9 72 14 47 14 -22 0 -96 -10 -165 -23z"/>
<path d="M2769 843 c-13 -16 -12 -17 4 -4 16 13 21 21 13 21 -2 0 -10 -8 -17
-17z"/>
<path d="M2719 803 c-13 -16 -12 -17 4 -4 16 13 21 21 13 21 -2 0 -10 -8 -17
-17z"/>
</g>
</svg>